PathFileType	4	(X/Y/Z)	S:\OneDrive - The University of Tokyo\ìåëÂéˆã∆\ÉoÉCÉÅÉJ\ë™íË\hirabayashi_2\Trimmed\Trimmed_BarL1Hirabayashi1.trc
DataRate	CameraRate	NumFrames	NumMarkers	Units	OrigDataRate	OrigDataStartFrame	OrigNumFrames
200.00	200.00	       9	12	mm	200.00	100	       265
Frame#	Time	BarR0			BarR50			BarR100			BarR130			BarR180			BarR230			BarL0			BarL50			BarL100			BarL130			BarL180			BarL230			
		X1	Y1	Z1	X2	Y2	Z2	X3	Y3	Z3	X4	Y4	Z4	X5	Y5	Z5	X6	Y6	Z6	X7	Y7	Z7	X8	Y8	Z8	X9	Y9	Z9	X10	Y10	Z10	X11	Y11	Z11	X12	Y12	Z12	

100	0.495	-576.84729	2755.35327	1663.88000	-604.37067	2305.93823	1662.52417	-637.76398	1851.69629	1661.82349	-661.35760	1349.22351	1661.63965	-690.44690	902.42218	1662.29565	-714.09540	454.46014	1663.79822	-1112.28113	2805.45776	1664.55664	-1139.39099	2354.34082	1648.54504	-1169.48914	1904.63733	1638.22998	-1197.13892	1404.16968	1637.14063	-1224.38159	953.37585	1648.72717	-1242.50281	507.54276	1667.08423	
101	0.500	-576.85114	2755.35791	1663.87073	-604.40576	2305.97974	1662.49731	-637.74365	1851.70825	1661.85400	-661.36432	1349.22839	1661.63318	-690.47717	902.45660	1662.27344	-714.09875	454.46283	1663.81091	-1112.27771	2805.51685	1664.56104	-1139.44202	2354.34131	1648.54456	-1169.53650	1904.68127	1638.21814	-1197.18542	1404.14075	1637.15283	-1224.42908	953.42719	1648.73022	-1242.50244	507.51981	1667.09607	
102	0.505	-576.85486	2755.34351	1663.86951	-604.33594	2305.97290	1662.50659	-637.76843	1851.72632	1661.82690	-661.34546	1349.25745	1661.63391	-690.46063	902.42688	1662.29163	-714.09137	454.47809	1663.81653	-1112.28662	2805.54834	1664.55518	-1139.41504	2354.36548	1648.55957	-1169.52112	1904.66174	1638.27417	-1197.15186	1404.18774	1637.18176	-1224.43298	953.41290	1648.74939	-1242.54456	507.53937	1667.10413	
103	0.510	-576.84741	2755.36914	1663.87939	-604.33545	2305.95654	1662.53833	-637.74786	1851.70789	1661.82751	-661.31677	1349.25500	1661.61975	-690.44592	902.46100	1662.28442	-714.08228	454.46387	1663.81543	-1112.28735	2805.53052	1664.54932	-1139.42053	2354.37915	1648.57178	-1169.49060	1904.68774	1638.28711	-1197.12964	1404.19238	1637.23022	-1224.45251	953.40228	1648.79309	-1242.56873	507.53397	1667.08435	
104	0.515	-576.85974	2755.37207	1663.88831	-604.32965	2305.96655	1662.51648	-637.71857	1851.76331	1661.84143	-661.29926	1349.22705	1661.63721	-690.43030	902.44586	1662.29651	-714.06427	454.45944	1663.80920	-1112.28418	2805.50928	1664.56165	-1139.38684	2354.33472	1648.59363	-1169.48743	1904.67004	1638.30920	-1197.09949	1404.18445	1637.28662	-1224.42822	953.39539	1648.83521	-1242.53906	507.50671	1667.08191	
105	0.520	-576.83649	2755.36230	1663.87878	-604.32056	2305.96143	1662.51440	-637.70410	1851.72534	1661.82971	-661.26752	1349.25574	1661.64197	-690.42407	902.45276	1662.28137	-714.03467	454.46448	1663.81873	-1112.26660	2805.49683	1664.56177	-1139.36804	2354.34766	1648.60071	-1169.42090	1904.55005	1638.70996	-1197.05847	1404.15222	1637.35229	-1224.40735	953.39032	1648.86316	-1242.55920	507.48273	1667.09583	
106	0.525	-576.82965	2755.36157	1663.87939	-604.30847	2305.95728	1662.52209	-637.68597	1851.72668	1661.83716	-661.27271	1349.21057	1661.64136	-690.40851	902.43567	1662.28772	-714.06689	454.48962	1663.82117	-1112.27319	2805.51221	1664.55359	-1139.31421	2354.32642	1648.64734	-1169.34644	1904.50757	1638.74146	-1196.97510	1404.20325	1637.40503	-1224.36157	953.34424	1648.91479	-1242.52539	507.47617	1667.11133	
107	0.530	-576.29138	2755.29419	1664.36694	-605.68420	2306.24170	1662.13574	-637.68250	1851.70532	1661.84143	-661.25006	1349.20264	1661.64282	-690.40021	902.41785	1662.30139	-714.05902	454.43848	1663.81348	-1112.23914	2805.47754	1664.55908	-1139.28760	2354.29858	1648.66321	-1169.32642	1904.53613	1638.79163	-1196.95789	1404.17346	1637.46143	-1224.32654	953.32849	1648.96570	-1242.51575	507.43839	1667.08545	
108	0.535	-576.86481	2755.33252	1663.87366	-604.29657	2305.95581	1662.51672	-637.72333	1851.71301	1661.82227	-661.27136	1349.22449	1661.62915	-690.40778	902.41406	1662.27246	-714.04822	454.43655	1663.80261	-1112.25696	2805.49365	1664.55554	-1139.25867	2354.28491	1648.67993	-1169.23230	1904.50647	1638.85266	-1196.93347	1404.17737	1637.53357	-1224.30981	953.31079	1648.98706	-1242.46997	507.41232	1667.08496	
